<svg width="134" height="26" viewBox="0 0 134 26" fill="none" xmlns="http://www.w3.org/2000/svg">
<path d="M34.2109 23.819C32.2679 23.819 30.7753 23.5547 29.7331 23.0262C28.6909 22.5051 28.1698 21.7941 28.1698 20.8933C28.1698 20.4913 28.2703 20.1526 28.4713 19.8772C28.6723 19.5943 28.9105 19.3635 29.1859 19.1848C29.4614 19.0062 29.7145 18.8684 29.9453 18.7717C30.1761 18.6749 30.3249 18.6042 30.3919 18.5595C30.2654 18.4851 30.0979 18.3883 29.8894 18.2692C29.681 18.1501 29.4912 17.9863 29.3199 17.7778C29.1562 17.5694 29.0743 17.2977 29.0743 16.9627C29.0743 16.5756 29.2567 16.2182 29.6214 15.8907C29.9937 15.5631 30.5483 15.3286 31.2853 15.1872C30.5632 14.8373 30.0086 14.3683 29.6214 13.7802C29.2343 13.1846 29.0408 12.563 29.0408 11.9153C29.0408 11.156 29.2604 10.5046 29.6996 9.96117C30.1463 9.41772 30.7642 9.00083 31.5533 8.7105C32.3424 8.42017 33.2618 8.275 34.3114 8.275C35.0857 8.275 35.7259 8.36061 36.2321 8.53183C36.7383 8.70306 37.2111 8.93383 37.6503 9.22417C37.8513 9.14228 38.1528 9.02317 38.5548 8.86683C38.9568 8.70306 39.3699 8.53556 39.7943 8.36433C40.2186 8.18567 40.5685 8.0405 40.8439 7.92883L40.8216 10.1733L38.8228 10.5307C39.0312 10.9997 39.1354 11.4575 39.1354 11.9042C39.1354 12.5742 38.9456 13.1958 38.5659 13.769C38.1937 14.3348 37.6317 14.7889 36.8798 15.1313C36.1353 15.4738 35.2048 15.645 34.0881 15.645C33.9764 15.645 33.8238 15.6413 33.6303 15.6338C33.4367 15.6264 33.2804 15.6189 33.1613 15.6115C32.5583 15.6338 32.1451 15.7046 31.9218 15.8237C31.6984 15.9428 31.5868 16.0731 31.5868 16.2145C31.5868 16.4155 31.7543 16.5532 32.0893 16.6277C32.4243 16.6947 32.9603 16.7505 33.6973 16.7952C33.9578 16.8101 34.3003 16.8324 34.7246 16.8622C35.1489 16.8845 35.6217 16.9106 36.1428 16.9403C37.4604 17.0297 38.458 17.3609 39.1354 17.9342C39.8129 18.5074 40.1516 19.2518 40.1516 20.1675C40.1516 21.2321 39.6603 22.1068 38.6776 22.7917C37.6949 23.4766 36.2061 23.819 34.2109 23.819ZM34.1774 14.0482C34.8847 14.0482 35.4579 13.8695 35.8971 13.5122C36.3363 13.1474 36.5559 12.6337 36.5559 11.9712C36.5559 11.2937 36.3363 10.7614 35.8971 10.3743C35.4579 9.98722 34.8847 9.79367 34.1774 9.79367C33.4553 9.79367 32.8709 9.98722 32.4243 10.3743C31.9851 10.7614 31.7654 11.2937 31.7654 11.9712C31.7654 12.6188 31.9776 13.1288 32.4019 13.501C32.8263 13.8658 33.4181 14.0482 34.1774 14.0482ZM34.6688 22.2222C36.582 22.2222 37.5386 21.6936 37.5386 20.6365C37.5386 20.2419 37.3786 19.9181 37.0584 19.665C36.7383 19.4044 36.2619 19.2518 35.6291 19.2072L32.7146 19.0285C32.2307 18.9987 31.7952 19.1402 31.4081 19.4528C31.0284 19.7655 30.8386 20.1377 30.8386 20.5695C30.8386 21.1204 31.1476 21.5336 31.7654 21.809C32.3908 22.0844 33.3586 22.2222 34.6688 22.2222ZM42.2775 20V8.45367H44.8794V10.955C45.1622 10.0989 45.6164 9.43261 46.2417 8.95617C46.8745 8.47228 47.604 8.23033 48.4304 8.23033C48.5644 8.23033 48.6909 8.23778 48.81 8.25267C48.9366 8.26756 49.0334 8.29361 49.1004 8.33083V10.9327C49.0185 10.8954 48.9105 10.8694 48.7765 10.8545C48.65 10.8396 48.5383 10.8322 48.4415 10.8322C47.3249 10.7428 46.4687 10.9178 45.8732 11.357C45.2851 11.7888 44.991 12.4327 44.991 13.2888V20H42.2775ZM52.4117 14.8522C52.4042 15.8348 52.6425 16.6426 53.1264 17.2753C53.6177 17.9007 54.3286 18.2133 55.2592 18.2133C55.8994 18.2133 56.454 18.0719 56.923 17.789C57.3995 17.4987 57.7159 17.0594 57.8722 16.4713H60.3623C60.2209 17.2753 59.8971 17.9565 59.3909 18.5148C58.8921 19.0732 58.2816 19.4975 57.5595 19.7878C56.8448 20.0782 56.1004 20.2233 55.3262 20.2233C54.2095 20.2233 53.2269 19.9888 52.3782 19.5198C51.537 19.0434 50.8781 18.3659 50.4017 17.4875C49.9327 16.6091 49.6982 15.5631 49.6982 14.3497C49.6982 13.166 49.9141 12.1163 50.3459 11.2007C50.7776 10.2776 51.3992 9.55172 52.2107 9.02317C53.0221 8.49461 54.0048 8.23033 55.1587 8.23033C56.8635 8.23033 58.1625 8.76261 59.0558 9.82717C59.9492 10.8843 60.3958 12.2838 60.3958 14.0258V14.8522H52.4117ZM52.4117 13.166H57.8275C57.8275 12.3322 57.6079 11.6287 57.1687 11.0555C56.7295 10.4748 56.0557 10.1845 55.1475 10.1845C54.552 10.1845 54.0495 10.3297 53.64 10.62C53.2306 10.9103 52.9216 11.2863 52.7132 11.7478C52.5047 12.2019 52.4042 12.6747 52.4117 13.166ZM64.317 14.8522C64.3095 15.8348 64.5478 16.6426 65.0316 17.2753C65.523 17.9007 66.2339 18.2133 67.1645 18.2133C67.8047 18.2133 68.3593 18.0719 68.8283 17.789C69.3048 17.4987 69.6211 17.0594 69.7775 16.4713H72.2676C72.1262 17.2753 71.8024 17.9565 71.2961 18.5148C70.7974 19.0732 70.1869 19.4975 69.4648 19.7878C68.7501 20.0782 68.0057 20.2233 67.2315 20.2233C66.1148 20.2233 65.1321 19.9888 64.2835 19.5198C63.4423 19.0434 62.7834 18.3659 62.307 17.4875C61.838 16.6091 61.6035 15.5631 61.6035 14.3497C61.6035 13.166 61.8194 12.1163 62.2511 11.2007C62.6829 10.2776 63.3045 9.55172 64.116 9.02317C64.9274 8.49461 65.9101 8.23033 67.064 8.23033C68.7688 8.23033 70.0678 8.76261 70.9611 9.82717C71.8545 10.8843 72.3011 12.2838 72.3011 14.0258V14.8522H64.317ZM64.317 13.166H69.7328C69.7328 12.3322 69.5132 11.6287 69.074 11.0555C68.6348 10.4748 67.961 10.1845 67.0528 10.1845C66.4573 10.1845 65.9548 10.3297 65.5453 10.62C65.1359 10.9103 64.8269 11.2863 64.6185 11.7478C64.41 12.2019 64.3095 12.6747 64.317 13.166ZM74.0894 20V8.45367H76.7471V10.1063C77.0151 9.65967 77.4283 9.25022 77.9866 8.878C78.5524 8.50578 79.2968 8.31967 80.2199 8.31967C80.9346 8.31967 81.5972 8.46111 82.2076 8.744C82.8255 9.02689 83.3206 9.46983 83.6928 10.0728C84.0724 10.6758 84.2623 11.4538 84.2623 12.4067V20H81.5376V12.7305C81.5376 11.9786 81.3254 11.4166 80.9011 11.0443C80.4842 10.6721 79.9631 10.486 79.3378 10.486C78.6827 10.486 78.0946 10.6498 77.5734 10.9773C77.0598 11.3049 76.8029 11.7999 76.8029 12.4625V20H74.0894ZM86.4309 20V8.45367H89.0774V10.1063C89.405 9.60011 89.8554 9.16089 90.4286 8.78867C91.0093 8.41644 91.75 8.23033 92.6508 8.23033C93.2612 8.23033 93.8791 8.39039 94.5044 8.7105C95.1372 9.02317 95.6137 9.48472 95.9338 10.0952C96.2985 9.55172 96.7824 9.10506 97.3854 8.75517C97.9959 8.40528 98.6808 8.23033 99.4401 8.23033C99.857 8.23033 100.285 8.29733 100.724 8.43133C101.163 8.56533 101.569 8.78867 101.941 9.10133C102.321 9.414 102.626 9.84206 102.857 10.3855C103.088 10.9215 103.203 11.5952 103.203 12.4067V20H100.49V12.7305C100.49 11.8744 100.274 11.2863 99.8421 10.9662C99.4103 10.6386 98.9302 10.4748 98.4016 10.4748C98.0815 10.4748 97.7465 10.5381 97.3966 10.6647C97.0467 10.7912 96.7527 10.9997 96.5144 11.29C96.2762 11.5803 96.1571 11.9712 96.1571 12.4625V20H93.4436V12.295C93.4436 11.893 93.3394 11.558 93.1309 11.29C92.9225 11.022 92.6582 10.821 92.3381 10.687C92.018 10.5456 91.6979 10.4748 91.3778 10.4748C91.0428 10.4748 90.7003 10.5456 90.3504 10.687C90.008 10.8284 89.7214 11.0443 89.4906 11.3347C89.2598 11.625 89.1444 12.0009 89.1444 12.4625V20H86.4309ZM108.587 20.2233C107.478 20.2233 106.559 19.9256 105.829 19.33C105.1 18.727 104.735 17.8783 104.735 16.784C104.735 15.511 105.193 14.5507 106.108 13.903C107.031 13.2553 108.502 12.9166 110.519 12.8868L112.239 12.8422V12.0605C112.239 11.4501 112.056 10.9736 111.692 10.6312C111.327 10.2887 110.768 10.1175 110.017 10.1175C109.451 10.1249 108.937 10.2589 108.476 10.5195C108.014 10.7801 107.709 11.2081 107.56 11.8037H105.248C105.308 10.62 105.781 9.73039 106.667 9.13483C107.56 8.53183 108.718 8.23033 110.139 8.23033C111.785 8.23033 112.979 8.55417 113.724 9.20183C114.476 9.84206 114.852 10.7428 114.852 11.9042V20H112.563L112.35 17.923C111.926 18.794 111.398 19.397 110.765 19.732C110.132 20.0596 109.406 20.2233 108.587 20.2233ZM109.469 18.3808C109.916 18.3808 110.352 18.2766 110.776 18.0682C111.2 17.8523 111.55 17.5768 111.826 17.2418C112.101 16.9068 112.239 16.5495 112.239 16.1698V14.3497L110.821 14.372C109.771 14.3869 108.926 14.5544 108.286 14.8745C107.646 15.1946 107.325 15.7381 107.325 16.5048C107.325 17.0929 107.53 17.5545 107.94 17.8895C108.349 18.2171 108.859 18.3808 109.469 18.3808ZM117.286 20V8.45367H119.888V10.955C120.171 10.0989 120.625 9.43261 121.25 8.95617C121.883 8.47228 122.613 8.23033 123.439 8.23033C123.573 8.23033 123.7 8.23778 123.819 8.25267C123.945 8.26756 124.042 8.29361 124.109 8.33083V10.9327C124.027 10.8954 123.919 10.8694 123.785 10.8545C123.659 10.8396 123.547 10.8322 123.45 10.8322C122.333 10.7428 121.477 10.9178 120.882 11.357C120.294 11.7888 120 12.4327 120 13.2888V20H117.286ZM132.181 10.3743H129.601L129.612 16.9962C129.612 17.5098 129.702 17.8299 129.88 17.9565C130.059 18.0756 130.372 18.1352 130.818 18.1352H132.236V19.8548C132.088 19.9144 131.86 19.9665 131.555 20.0112C131.25 20.0633 130.848 20.0893 130.349 20.0893C129.434 20.0893 128.726 19.9702 128.228 19.732C127.729 19.4938 127.379 19.1513 127.178 18.7047C126.984 18.2506 126.888 17.7146 126.888 17.0967V10.3743H125.012V8.45367H126.966L127.647 5.0255H129.601V8.4425H132.181V10.3743Z" fill="#212B36"/>
<path d="M23.1814 6.74817L19.7482 8.92064C15.9941 2.82566 8.96698 4.45501 6.13615 7.47233C3.30532 10.4896 2.40187 17.3691 8.24422 20.7485C14.0866 24.1279 20.0494 18.9381 20.0494 17.1277C13.1229 11.0931 8.0033 16.9467 7.70214 16.8863C7.40099 16.826 4.99177 15.1967 6.4373 12.8431C15.7128 6.50678 23.4223 14.2311 24.5667 16.4639C24.4462 21.1106 15.8333 27.9901 8.72607 25.4555C1.61888 22.921 -0.549414 16.9467 0.113121 11.3345C0.775656 5.72228 5.35317 1.86012 10.6534 0.773887C17.5438 0.339393 21.8764 4.5757 23.1814 6.74817Z" fill="#00AB55"/>
<path d="M18.7243 17.007C14.6769 19.4692 9.89055 19.2801 8.00333 18.8778C8.00333 18.5962 8.05151 18.0329 8.24425 18.0329C15.1105 19.0588 15.8935 17.5502 18.7243 17.007Z" fill="#00AB55"/>
</svg>
